name C:\Users\Nicos\Documents\OpenSimProjects\SprintingProject\Study1\PredictiveResults\IC_pred_Sprinting_optimum_27-October-2023__18-13-56___HTD_Plus_2_p02_maxVel_01.mot
datacolumns 38
datarows 6
range 0.10881583 0.11447565
endheader
                time	/jointset/ground_pelvis/pelvis_tilt/value	/jointset/ground_pelvis/pelvis_list/value	/jointset/ground_pelvis/pelvis_rotation/value	/jointset/ground_pelvis/pelvis_tx/value	/jointset/ground_pelvis/pelvis_ty/value	/jointset/ground_pelvis/pelvis_tz/value	/jointset/hip_r/hip_flexion_r/value	/jointset/hip_r/hip_adduction_r/value	/jointset/hip_r/hip_rotation_r/value	/jointset/knee_r/knee_angle_r/value	/jointset/ankle_r/ankle_angle_r/value	/jointset/subtalar_r/subtalar_angle_r/value	/jointset/mtp_r/mtp_angle_r/value	/jointset/hip_l/hip_flexion_l/value	/jointset/hip_l/hip_adduction_l/value	/jointset/hip_l/hip_rotation_l/value	/jointset/knee_l/knee_angle_l/value	/jointset/ankle_l/ankle_angle_l/value	/jointset/subtalar_l/subtalar_angle_l/value	/jointset/mtp_l/mtp_angle_l/value	/jointset/back/lumbar_extension/value	/jointset/back/lumbar_bending/value	/jointset/back/lumbar_rotation/value	/jointset/acromial_r/arm_flex_r/value	/jointset/acromial_r/arm_add_r/value	/jointset/acromial_r/arm_rot_r/value	/jointset/elbow_r/elbow_flex_r/value	/jointset/radioulnar_r/pro_sup_r/value	/jointset/radius_hand_r/wrist_flex_r/value	/jointset/radius_hand_r/wrist_dev_r/value	/jointset/acromial_l/arm_flex_l/value	/jointset/acromial_l/arm_add_l/value	/jointset/acromial_l/arm_rot_l/value	/jointset/elbow_l/elbow_flex_l/value	/jointset/radioulnar_l/pro_sup_l/value	/jointset/radius_hand_l/wrist_flex_l/value	/jointset/radius_hand_l/wrist_dev_l/value	
          0.10881583	         -9.19532007	          1.00768490	        -17.70875730	          0.63365271	          0.95883148	          0.30637535	          7.75233228	         -2.26769143	         10.16457407	        -25.91193759	         15.38633390	         -5.83692956	         14.81150786	         58.05491478	        -10.92294809	          1.68111588	       -136.55599258	         -0.40450568	        -22.11267684	          5.89467468	        -12.70743908	          2.41735459	         11.06855923	         61.22380515	        -26.08853265	        -14.60278265	        114.44054109	         84.27727714	        -15.20038558	          6.36886651	        -45.26638682	        -20.39861736	         -4.80006989	         85.45260072	         53.58304967	         -4.44914304	          8.41533247	
          0.11029882	         -9.11137110	          1.27781709	        -17.50128397	          0.65183737	          0.95848439	          0.30598064	          7.03704937	         -2.88546211	          9.90387662	        -26.48532641	         14.82109422	         -6.00614974	         14.27915152	         59.15035115	        -10.43004681	          1.95336596	       -136.42969272	         -0.38812632	        -22.14245433	          6.58366874	        -12.61141687	          2.12714669	         10.99825476	         62.71257889	        -26.01148593	        -14.40476093	        115.21171383	         83.91610843	        -14.96913626	          6.51275961	        -46.81675359	        -20.51892310	         -5.23936386	         86.50696840	         52.95356687	         -4.53313531	          8.37012126	
          0.11029882	         -9.11137110	          1.27781709	        -17.50128397	          0.65183737	          0.95848439	          0.30598064	          7.03704937	         -2.88546211	          9.90387662	        -26.48532641	         14.82109422	         -6.00614974	         14.27915152	         59.15035115	        -10.43004681	          1.95336596	       -136.42969272	         -0.38812632	        -22.14245433	          6.58366874	        -12.61141687	          2.12714669	         10.99825476	         62.71257889	        -26.01148593	        -14.40476093	        115.21171383	         83.91610843	        -14.96913626	          6.51275961	        -46.81675359	        -20.51892310	         -5.23936386	         86.50696840	         52.95356687	         -4.53313531	          8.37012126	
          0.11094644	         -9.07996104	          1.39640097	        -17.39989542	          0.65978529	          0.95833254	          0.30580348	          6.73274813	         -3.15426360	          9.76953336	        -26.74000004	         14.54378875	         -6.08570482	         14.00146771	         59.63250908	        -10.20886396	          2.07106485	       -136.36220486	         -0.38671299	        -22.15472457	          6.88760617	        -12.56242676	          2.00178626	         10.95635324	         63.35442362	        -25.97203459	        -14.30410348	        115.52960851	         83.75759332	        -14.86814767	          6.57694931	        -47.49676726	        -20.57664058	         -5.43805581	         86.96770249	         52.67782230	         -4.57289589	          8.35014243	
          0.11299266	         -9.01255082	          1.78485781	        -17.05719943	          0.68490645	          0.95783378	          0.30524532	          5.82719193	         -4.00362123	          9.28986890	        -27.57359264	         13.55684693	         -6.35213671	         12.91054601	         61.17788174	         -9.50009560	          2.41675272	       -136.09806315	         -0.40141189	        -22.19125962	          7.85239548	        -12.36562112	          1.59887944	         10.79826004	         65.34475766	        -25.82411730	        -13.92249665	        116.45400413	         83.25735678	        -14.54905609	          6.78237204	        -49.65349886	        -20.77970803	         -6.08160941	         88.41402593	         51.81071628	         -4.71084861	          8.28724164	
          0.11447565	         -8.99340704	          2.08203514	        -16.79961665	          0.70311304	          0.95745526	          0.30485478	          5.22807404	         -4.62076709	          8.90614685	        -28.20672086	         12.73422100	         -6.56006661	         11.94176386	         62.31371869	         -8.98803634	          2.63255561	       -135.85700533	         -0.42677099	        -22.21321589	          8.54927912	        -12.18401829	          1.29551255	         10.67024146	         66.75040800	        -25.69271449	        -13.58286981	        117.04293493	         82.89829354	        -14.31780656	          6.93211597	        -51.21778509	        -20.94583703	         -6.55166528	         89.43772181	         51.18770438	         -4.82253132	          8.24193467	
